# xmcd
#
# Track frame offsets:
# 150
# 9181
# 24977
# 39515
# 56902
# 71070
# 84303
# 98661
# 111714
# 127064
# 141811
# 154675
# 168468
# 183927
# 197014
# 213621
# 234625
# 249787
# 262893
# 275840
# 293325
# 305666
# 321880
# 336375
#
# Disc length: 4691 seconds
#
#
# Revision: 0
# Processed by: cddbd v1.5.1PL0 Copyright (c) Steve Scherf et al.
# Submitted via: FreeRIP 2.80 
#
DISCID=5d125118
DTITLE=Sidinei, Acácio, Boiadeiro - Os Boiadeiros
DYEAR=1900
DGENRE=Country
TTITLE0=Abertura
TTITLE1=Lilica
TTITLE2=Forró na Roça
TTITLE3=Amanhã vou lá Hoje
TTITLE4=Tá Nervoso, vai Pescar
TTITLE5=Vida Vazia
TTITLE6=Treme-Treme
TTITLE7=Só você não vê
TTITLE8=Chumbo Trocado
TTITLE9=Taça de Pranto
TTITLE10=Sapatilha 37
TTITLE11=Libera o Tõe
TTITLE12=Ligação Urbana
TTITLE13=Sufocado
TTITLE14=Faz de Conta
TTITLE15=Nem mais uma Dúvida
TTITLE16=Meiga Senhorita
TTITLE17=Fruto Especial
TTITLE18=Liguei pra te Dizer que te Amo
TTITLE19=Castigo
TTITLE20=Volta Amor
TTITLE21=Morango do Nordeste
TTITLE22=Na Hora do Adeus
TTITLE23=Boneca Cobiçada
EXTD=
EXTT0=
EXTT1=
EXTT2=
EXTT3=
EXTT4=
EXTT5=
EXTT6=
EXTT7=
EXTT8=
EXTT9=
EXTT10=
EXTT11=
EXTT12=
EXTT13=
EXTT14=
EXTT15=
EXTT16=
EXTT17=
EXTT18=
EXTT19=
EXTT20=
EXTT21=
EXTT22=
EXTT23=
PLAYORDER=
